<svg xmlns="http://www.w3.org/2000/svg" viewBox="0 0 421.69 512"><defs><style>.cls-1{fill:#5394d1;}</style></defs><title>contact-us</title><g id="Слой_2" data-name="Слой 2"><g id="Capa_1" data-name="Capa 1"><path class="cls-1" d="M416.92,236.81a29.89,29.89,0,0,0-19.13-14.18V178.47C397.78,80.14,313.83,0,210.66,0S23.53,80.14,23.53,178.47v44.16a29.89,29.89,0,0,0-19,14.56A40,40,0,0,0,0,256.8V354a40,40,0,0,0,4.47,19.51,32.65,32.65,0,0,0,31.12,16.09H50.37a19,19,0,0,0,19,17.89H86.16a19,19,0,0,0,19-19v-168a19,19,0,0,0-19-19H68.93a19,19,0,0,0-19,19v.76H42.18V178.47C42.18,90.52,117.57,19,210.28,19S378.37,90.52,378.37,178.47V221.2h-7.71v-.76a19,19,0,0,0-19-19h-16a19,19,0,0,0-19,19V389.1a19,19,0,0,0,16.94,18.47A61.87,61.87,0,0,1,318.12,440c-14.94,16.56-39.31,26.08-72.15,28.55v-4.19a20,20,0,0,0-20.75-19H184.39a20,20,0,0,0-20.75,19v28.55a20,20,0,0,0,20.75,19H225.6a20,20,0,0,0,20.75-19v-5.33C284.9,485,314,473.44,332.58,453a81.19,81.19,0,0,0,20.84-45.5,19,19,0,0,0,17.89-17.8h14.75a32.65,32.65,0,0,0,31.12-16.09,40,40,0,0,0,4.47-19.51V256.8A40,40,0,0,0,416.92,236.81ZM69.41,371.31V239.86a19,19,0,0,0,0-3.33V220.82l16-.48V388.53h-16Zm-19-131.92V370.54H35.62c-11,0-13.61-4.66-14.47-6.28a21.8,21.8,0,0,1-2.09-10.37V256.8a21.79,21.79,0,0,1,2-10.47c.86-1.52,3.43-6.28,14.47-6.28ZM227.69,478.29v13a2.57,2.57,0,0,1-2.09,1.33H184.39a10.49,10.49,0,0,1-1.52,0V464.87a2.57,2.57,0,0,1,1.9-.57h42.93v14ZM352,239.86V388.53H335.92V220.44h16.37Zm48.16,124.59c-.86,1.52-3.43,6.28-14.47,6.28H371V240.24H385.7c11,0,13.61,4.66,14.47,6.28a21.8,21.8,0,0,1,2.09,10.37v97.18A21.81,21.81,0,0,1,400.16,364.45Z"/></g></g></svg>