<svg xmlns="http://www.w3.org/2000/svg" viewBox="0 0 72.04 80.13"><defs><style>.cls-1{fill:#8e8e8e;}.cls-2{fill:#8d8d8d;}</style></defs><title>date</title><g id="Слой_2" data-name="Слой 2"><g id="Слой_1-2" data-name="Слой 1"><path class="cls-1" d="M35.87,80.11c-8.66,0-17.32,0-26,0C2.79,80.07,0,77.26,0,70q0-26,0-52c0-6.84,2.2-9.5,9-9.86C12.55,8,12.19,6,12,3.91,11.61.71,13,0,15.95,0,18.71.08,20.59.41,20,3.78c-.6,3.54.93,4.52,4.4,4.41,7.82-.25,15.66-.23,23.48,0C51.17,8.27,52.54,7.27,52,4c-.49-3,.76-4,3.85-4S60.55.87,60,4.19c-.48,3,.64,4,3.79,4,5.4.14,8.15,3.19,8.18,8.64q.12,27.23,0,54.46c0,5.82-3.13,8.72-9.13,8.77C53.86,80.17,44.86,80.11,35.87,80.11Zm0-8c8.17,0,16.33-.1,24.5.06,2.8.05,3.74-.78,3.71-3.65-.14-12.33-.12-24.67,0-37,0-2.57-.73-3.47-3.39-3.45q-24.5.15-49,0c-2.79,0-3.74.77-3.71,3.65Q8.16,50,8,68.21c0,3,.78,4.06,3.91,4C19.85,72,27.86,72.11,35.86,72.11Z"/><path class="cls-2" d="M56,54c0,10.16,0,10.16-10,10.16S36,64.11,36,54c0-9.91,0-9.91,9.72-9.91h.5C56,44.11,56,44.11,56,54Z"/></g></g></svg>