<svg xmlns="http://www.w3.org/2000/svg" viewBox="0 0 80.02 92.01"><defs><style>.cls-1{fill:#8d8d8d;}.cls-2{fill:#919191;}</style></defs><title>time</title><g id="Слой_2" data-name="Слой 2"><g id="Слой_1-2" data-name="Слой 1"><path class="cls-1" d="M52,0c0,8,0,8-8,8h-7.9c-8,0-8,0-8-8Z"/><path class="cls-2" d="M39.89,92A40,40,0,1,1,80,52.11,40,40,0,0,1,39.89,92Zm.34-72A32,32,0,1,0,72,52.36,32,32,0,0,0,40.23,20Z"/><path class="cls-2" d="M80,17.26a55.75,55.75,0,0,1-5.34,4.26c-1.56,1-2.26-.83-3.14-1.64-1.58-1.44-2.92-3.16-4.55-4.53-2.67-2.23-3-3.85-.18-6.61C69.94,5.64,71.27,8,73,9.82,75.19,12,77.25,14.31,80,17.26Z"/><path class="cls-1" d="M44,43.81c0,4.14-.19,8.29.06,12.42.2,3.19-1.08,3.9-4,3.85-2.75,0-4.23-.36-4.13-3.73q.35-12.41,0-24.84C35.82,28,37.62,28,40.2,27.94s4.05.33,3.87,3.45C43.82,35.52,44,39.67,44,43.81Z"/></g></g></svg>