<svg xmlns="http://www.w3.org/2000/svg" viewBox="0 0 87.97 56.07"><defs><style>.cls-1{fill:#8f8f8f;}</style></defs><title>view</title><g id="Слой_2" data-name="Слой 2"><g id="Слой_1-2" data-name="Слой 1"><path class="cls-1" d="M42.35,0C56.63.31,66.92,6.1,76.23,14A70.8,70.8,0,0,1,86.58,24.79c1.64,2.14,2,4.1.2,6.29C77.45,42.55,66.57,51.83,51.72,55.14,36,58.63,23.53,51.79,12,42.31A63.7,63.7,0,0,1,1.32,31.17C0,29.4-.64,27.61.86,25.71,12,11.68,25.28,1.35,42.35,0ZM44,48.08a20,20,0,0,0,.26-40,20,20,0,1,0-.26,40Z"/><path class="cls-1" d="M44.21,18.1A10.18,10.18,0,0,1,54,28.52a10,10,0,0,1-20-.87A10.18,10.18,0,0,1,44.21,18.1Z"/></g></g></svg>