<svg xmlns="http://www.w3.org/2000/svg" viewBox="0 0 79.81 75.91"><defs><style>.cls-1{fill:#fff;}</style></defs><title>favorites</title><g id="Слой_2" data-name="Слой 2"><g id="Слой_1-2" data-name="Слой 1"><path class="cls-1" d="M0,29.14c8.92-.84,16.52-1.75,24.14-2.2,3.49-.21,5.28-1.59,6.52-4.8C33.4,15.08,36.52,8.16,40,0c3.37,8,6.45,14.93,9.12,22,1.33,3.51,3,5.18,7.11,5.26,7.46.16,14.9,1.19,23.6,2-4,3.52-7,7-10.79,9.37C59.74,44.3,57.11,51.5,61.43,61.76a34.46,34.46,0,0,1,2.64,13.76c-7.13-4.26-13.86-8.14-20.43-12.28-2.57-1.62-4.59-1.72-7.21-.06-6.56,4.17-13.31,8-21.15,12.72,1.93-8.6,3.41-16,5.31-23.33.86-3.32.32-5.48-2.43-7.7C12.25,40.1,6.65,35,0,29.14Zm51.86,29c.21.22.56.67.62.63.57-.35.37-.82.09-1.26-.62-2.75-.92-5.63-1.93-8.23-1.32-3.4-.38-5.58,2.4-7.61,2.44-1.77,4.6-3.93,7.42-6.38-3.87-.36-6.69-1-9.46-.8-4.32.26-6.06-2.08-7.43-5.66-.94-2.46-1.59-5.26-4.09-7.55-1.45,3.72-3,6.88-3.87,10.22-.64,2.45-2,3.06-4.15,3.31-3.38.4-6.92-.33-10.71,1.38,2.46,2.09,4.48,4.06,6.75,5.67,3,2.1,3.89,4.4,2.62,8a22.35,22.35,0,0,0-1.73,10.26c7.43-9,14.88-8.06,22.5-2.22C51.13,58.07,51.53,58,51.86,58.1Z"/></g></g></svg>