<svg xmlns="http://www.w3.org/2000/svg" viewBox="0 0 80.09 56.03"><defs><style>.cls-1{fill:#fff;}</style></defs><title>i-suggest</title><g id="Слой_2" data-name="Слой 2"><g id="Слой_1-2" data-name="Слой 1"><path class="cls-1" d="M53.49,12c-7.31,0-14.63-.21-21.93.09-3.48.14-3.6-1.43-3.63-4.11s.25-4.12,3.66-4.07q22.43.31,44.87,0c3.47,0,3.6,1.44,3.62,4.11s-.24,4.2-3.66,4.07C68.79,11.82,61.14,12,53.49,12Z"/><path class="cls-1" d="M54.54,44c7.31,0,14.63.21,21.93-.09,3.49-.14,3.59,1.46,3.62,4.12s-.27,4.11-3.67,4.06q-22.43-.31-44.87,0c-3.48.05-3.58-1.46-3.61-4.12s.26-4.19,3.67-4.06C39.24,44.21,46.89,44,54.54,44Z"/><path class="cls-1" d="M8,16A8.14,8.14,0,0,1,0,8.11,8.15,8.15,0,0,1,8.3,0,8.16,8.16,0,0,1,16,8.18,8.14,8.14,0,0,1,8,16Z"/><path class="cls-1" d="M7.92,40a8,8,0,0,1,.42,16,8,8,0,1,1-.42-16Z"/><path class="cls-1" d="M53.49,12c-7.31,0-14.63-.21-21.93.09-3.48.14-3.6-1.43-3.63-4.11s.25-4.12,3.66-4.07q22.43.31,44.87,0c3.47,0,3.6,1.44,3.62,4.11s-.24,4.2-3.66,4.07C68.79,11.82,61.14,12,53.49,12Z"/><path class="cls-1" d="M54.54,44c7.31,0,14.63.21,21.93-.09,3.49-.14,3.59,1.46,3.62,4.12s-.27,4.11-3.67,4.06q-22.43-.31-44.87,0c-3.48.05-3.58-1.46-3.61-4.12s.26-4.19,3.67-4.06C39.24,44.21,46.89,44,54.54,44Z"/><path class="cls-1" d="M8,16A8.14,8.14,0,0,1,0,8.11,8.15,8.15,0,0,1,8.3,0,8.16,8.16,0,0,1,16,8.18,8.14,8.14,0,0,1,8,16Z"/><path class="cls-1" d="M7.92,40a8,8,0,0,1,.42,16,8,8,0,1,1-.42-16Z"/></g></g></svg>