<svg xmlns="http://www.w3.org/2000/svg" viewBox="0 0 82.57 84.78"><defs><style>.cls-1{fill:#fff;}</style></defs><title>mywork</title><g id="Слой_2" data-name="Слой 2"><g id="Слой_1-2" data-name="Слой 1"><path class="cls-1" d="M.07,43.49C.07,38.33.21,33.16,0,28c-.11-2.71.87-3.41,3.42-3.33,5,.17,10,.26,15,0,3.32-.19,3.81,1.2,3.76,4.07-.15,9.33-.05,18.65-.06,28,0,3,.16,6.12,4.14,6s3.9-3.26,3.89-6.23c0-9.33.11-18.66-.1-28-.07-3.06.73-4.09,3.85-3.93a126.83,126.83,0,0,0,14.48,0c3.53-.22,4.1,1.31,4,4.36-.16,9.16-.06,18.32-.06,27.48,0,2.89-.14,6.2,3.84,6.3,4.3.11,4.29-3.35,4.3-6.43,0-9.16.11-18.33-.14-27.48-.09-3.37,1-4.32,4.23-4.15,4.82.25,9.66.18,14.49,0,2.55-.08,3.49.66,3.45,3.35-.15,10.16.27,20.34-.17,30.48C81.47,78.83,62,90.31,43.72,81.4c-2.11-1-3.43-.82-5.39.19C20.7,90.68,1.32,79.45.18,59.48c-.3-5.31,0-10.66,0-16Z"/><path class="cls-1" d="M11.12,21.18c-6.34,0-11-4.34-11-10.34A11,11,0,0,1,10.85,0c6-.12,11.37,5.07,11.36,10.89S17.48,21.19,11.12,21.18Z"/></g></g></svg>