<svg xmlns="http://www.w3.org/2000/svg" viewBox="0 0 80.3 60.21"><defs><style>.cls-1{fill:#fff;}</style></defs><title>partners</title><g id="Слой_2" data-name="Слой 2"><g id="Слой_1-2" data-name="Слой 1"><path class="cls-1" d="M0,5.39c.66,0,1.06-.2,1.3-.07,7.44,4.15,14,2.8,20.73-2.19,4-3,8.82-4.89,14.28-.75-2.52,1.7-4.85,3.12-7,4.76-3.87,2.95-4.41,6-1.95,9.94,3.5,5.64,7,7.45,11.28,4.75,7.55-4.77,8-2.28,12.54,2.24,3.55,3.51,7,7.11,10.42,10.76,2.87,3.07,2.91,6.12-.3,9.11-6.25,5.8-13.8,9.13-21.76,11.71-1,.31-2.49,1.14-2.51-1,0-4.54-3.39-7-6-10-3.68-4.08-7.4-8.12-11.23-12q-7.22-7.4-14.08.25c-1,1.13-1.43,2.4-3.48,1.54C.56,33.78,0,33,0,31.25.07,22.62,0,14,0,5.39Z"/><path class="cls-1" d="M80,20.71a32.06,32.06,0,0,1-.08,6c-.42,2.16,1.83,5.42-1.62,6.35-4,1.09-8.43,2.84-12.18-.95-4.91-5-9.94-9.83-14.61-15-3.07-3.41-6-3.66-9.52-1.07a23,23,0,0,1-4.3,2.51,4.49,4.49,0,0,1-6.31-2.23c-1.18-2.32-.75-4.66,1.63-6.08C38.33,7.05,43.69,4.06,49,.95a4.6,4.6,0,0,1,5.16.23A16,16,0,0,1,58,4.29c5,6.28,11.1,7.7,18.37,4.31,2.72-1.27,3.9-.54,3.68,2.63S80,17.55,80,20.71Z"/><path class="cls-1" d="M12.4,32.91c1.76-.31,3,.78,4.13,2,4.83,5.26,9.6,10.57,14.56,15.7,2.52,2.6,2.46,5.1,0,7.33s-5.34,3.39-8,.69C17.77,53.23,12.46,47.72,7.56,41.88,4.66,38.42,7.68,33.11,12.4,32.91Z"/><path class="cls-1" d="M0,5.39c.66,0,1.06-.2,1.3-.07,7.44,4.15,14,2.8,20.73-2.19,4-3,8.82-4.89,14.28-.75-2.52,1.7-4.85,3.12-7,4.76-3.87,2.95-4.41,6-1.95,9.94,3.5,5.64,7,7.45,11.28,4.75,7.55-4.77,8-2.28,12.54,2.24,3.55,3.51,7,7.11,10.42,10.76,2.87,3.07,2.91,6.12-.3,9.11-6.25,5.8-13.8,9.13-21.76,11.71-1,.31-2.49,1.14-2.51-1,0-4.54-3.39-7-6-10-3.68-4.08-7.4-8.12-11.23-12q-7.22-7.4-14.08.25c-1,1.13-1.43,2.4-3.48,1.54C.56,33.78,0,33,0,31.25.07,22.62,0,14,0,5.39Z"/><path class="cls-1" d="M80,20.71a32.06,32.06,0,0,1-.08,6c-.42,2.16,1.83,5.42-1.62,6.35-4,1.09-8.43,2.84-12.18-.95-4.91-5-9.94-9.83-14.61-15-3.07-3.41-6-3.66-9.52-1.07a23,23,0,0,1-4.3,2.51,4.49,4.49,0,0,1-6.31-2.23c-1.18-2.32-.75-4.66,1.63-6.08C38.33,7.05,43.69,4.06,49,.95a4.6,4.6,0,0,1,5.16.23A16,16,0,0,1,58,4.29c5,6.28,11.1,7.7,18.37,4.31,2.72-1.27,3.9-.54,3.68,2.63S80,17.55,80,20.71Z"/><path class="cls-1" d="M12.4,32.91c1.76-.31,3,.78,4.13,2,4.83,5.26,9.6,10.57,14.56,15.7,2.52,2.6,2.46,5.1,0,7.33s-5.34,3.39-8,.69C17.77,53.23,12.46,47.72,7.56,41.88,4.66,38.42,7.68,33.11,12.4,32.91Z"/></g></g></svg>