<svg xmlns="http://www.w3.org/2000/svg" viewBox="0 0 80.04 64.24"><defs><style>.cls-1{fill:#fff;}</style></defs><title>portfolio</title><g id="Слой_2" data-name="Слой 2"><g id="Слой_1-2" data-name="Слой 1"><path class="cls-1" d="M39.51,64.23c-9.82,0-19.64,0-29.46,0-7.27,0-10-2.72-10-9.89Q0,32.11,0,9.89C0,3.07,2.85.34,9.79.23c3.16,0,6.36.28,9.48-.07,6.06-.67,11.12.63,14.67,6,1.38,2.08,3.48,2.15,5.74,2.13,9.82-.07,19.64,0,29.46,0C77.35,8.25,80,10.81,80,18.84q0,17.72,0,35.45c0,7.11-2.82,9.88-10,9.92C59.82,64.27,49.67,64.23,39.51,64.23Z"/></g></g></svg>