<svg xmlns="http://www.w3.org/2000/svg" viewBox="0 0 80.09 72.1"><defs><style>.cls-1{fill:#fff;}</style></defs><title>work-clients</title><g id="Слой_2" data-name="Слой 2"><g id="Слой_1-2" data-name="Слой 1"><path class="cls-1" d="M40.07,52.07c-10.16,0-20.31,0-30.47,0-6.52,0-9.48-3-9.54-9.4q-.1-10.49,0-21C.11,15,3,12.14,9.9,12.07c1.83,0,3.66,0,5.49,0,4.45,0,9.72,1.79,9.21-6.37C24.39,2.27,28,.18,31.78.11c5.49-.11,11-.18,16.48,0,4.94.18,7.63,3,7.68,8.51,0,3,1,3.63,3.71,3.49,3.82-.2,7.66-.13,11.49,0C77,12.23,80,15.23,80,21.14q.13,11,0,22C79.95,49,76.92,52,71,52,60.72,52.13,50.39,52.07,40.07,52.07Zm-.33-40c2.15,0,4.31,0,6.46,0,1.62,0,1.88-.85,1.86-2.19s-.5-1.8-1.74-1.8c-4.14,0-8.28,0-12.42,0C32.28,8,32,8.91,32,10.26s.51,1.8,1.74,1.8C35.76,12,37.75,12.05,39.74,12.06Zm4.32,28.11c-.22-2.47-1.47-4-4-4a3.61,3.61,0,0,0-3.91,3.59A3.65,3.65,0,0,0,39.82,44C42.35,44.15,43.7,42.65,44.06,40.17Z"/><path class="cls-1" d="M80,51.88c0,4,.13,8,0,12-.2,5-3.2,8.15-8.22,8.17Q40,72.18,8.3,72c-5,0-8-3.16-8.22-8.17-.16-4,0-8,0-13.19,3.15,5.29,7.44,5.48,12,5.45q28.74-.17,57.49,0C73.58,56.12,77.13,55.5,80,51.88Z"/></g></g></svg>