<svg xmlns="http://www.w3.org/2000/svg" viewBox="0 0 49.91 72.1"><defs><style>.cls-1{fill:#7da5c6;}</style></defs><title>audio_1</title><g id="Слой_2" data-name="Слой 2"><g id="Слой_1-2" data-name="Слой 1"><path class="cls-1" d="M25,49.91a13.35,13.35,0,0,0,9.79-4.07A13.35,13.35,0,0,0,38.82,36V13.87a13.35,13.35,0,0,0-4.07-9.79A13.35,13.35,0,0,0,25,0a13.35,13.35,0,0,0-9.79,4.07,13.35,13.35,0,0,0-4.07,9.79V36a13.35,13.35,0,0,0,4.07,9.79A13.35,13.35,0,0,0,25,49.91Z"/><path class="cls-1" d="M49.09,28.55a2.77,2.77,0,0,0-4.72,1.95V36a18.69,18.69,0,0,1-5.7,13.71A18.69,18.69,0,0,1,25,55.46a18.69,18.69,0,0,1-13.71-5.7A18.69,18.69,0,0,1,5.55,36V30.5a2.67,2.67,0,0,0-.82-1.95,2.66,2.66,0,0,0-1.95-.82,2.66,2.66,0,0,0-2,.82A2.66,2.66,0,0,0,0,30.5V36A24.07,24.07,0,0,0,6.39,52.71a24.2,24.2,0,0,0,15.79,8.12v5.72H11.09a2.77,2.77,0,0,0,0,5.55H38.82a2.77,2.77,0,0,0,0-5.55H27.73V60.83a24.2,24.2,0,0,0,15.79-8.12A24.06,24.06,0,0,0,49.91,36V30.5A2.66,2.66,0,0,0,49.09,28.55Z"/><path class="cls-1" d="M25,49.91a13.35,13.35,0,0,0,9.79-4.07A13.35,13.35,0,0,0,38.82,36V13.87a13.35,13.35,0,0,0-4.07-9.79A13.35,13.35,0,0,0,25,0a13.35,13.35,0,0,0-9.79,4.07,13.35,13.35,0,0,0-4.07,9.79V36a13.35,13.35,0,0,0,4.07,9.79A13.35,13.35,0,0,0,25,49.91Z"/><path class="cls-1" d="M49.09,28.55a2.77,2.77,0,0,0-4.72,1.95V36a18.69,18.69,0,0,1-5.7,13.71A18.69,18.69,0,0,1,25,55.46a18.69,18.69,0,0,1-13.71-5.7A18.69,18.69,0,0,1,5.55,36V30.5a2.67,2.67,0,0,0-.82-1.95,2.66,2.66,0,0,0-1.95-.82,2.66,2.66,0,0,0-2,.82A2.66,2.66,0,0,0,0,30.5V36A24.07,24.07,0,0,0,6.39,52.71a24.2,24.2,0,0,0,15.79,8.12v5.72H11.09a2.77,2.77,0,0,0,0,5.55H38.82a2.77,2.77,0,0,0,0-5.55H27.73V60.83a24.2,24.2,0,0,0,15.79-8.12A24.06,24.06,0,0,0,49.91,36V30.5A2.66,2.66,0,0,0,49.09,28.55Z"/></g></g></svg>