<svg xmlns="http://www.w3.org/2000/svg" viewBox="0 0 72.86 59.43"><defs><style>.cls-1{fill:#fefefe;}.cls-2{fill:#7da5c6;}.cls-3{fill:#7ea5c6;}.cls-4{fill:#7fa6c6;}.cls-5{fill:#80a7c7;}</style></defs><title>business-card_1</title><g id="Слой_2" data-name="Слой 2"><g id="Слой_1-2" data-name="Слой 1"><path class="cls-1" d="M21.55,0A17.09,17.09,0,0,0,4.18,17.17,17.24,17.24,0,0,0,21.53,34.68,17.68,17.68,0,0,0,39,17.32C39.07,8,31.08,0,21.55,0Zm-.27,59.38c2.22,0,4.24.12,6.24,0,3.83-.29,7.66-.68,11.25-2.25C43,55.25,43.71,52.88,41.32,49a14.42,14.42,0,0,0-7.89-6c-5.89-2.11-11.94-2.14-18-1.19C11.05,42.45,7,43.84,3.68,46.9c-2,1.86-4.22,4.11-3.56,7s3.63,3.38,6.11,4A50.46,50.46,0,0,0,21.27,59.38Zm34.45-26c-3.77,0-7.54,0-11.32,0s-6.35,2.39-6.32,5.77,2.56,5.66,6.18,5.68q11.2.07,22.39,0c3.63,0,6.17-2.41,6.2-5.66s-2.5-5.75-6.3-5.79C62.95,33.34,59.34,33.37,55.72,33.37Zm-.07-18.82c-3.69,0-7.39.08-11.08,0-1.72-.05-2.26.55-2.1,2.22a12.88,12.88,0,0,1-1.12,6.81c-.74,1.54,0,2.05,1.29,2.29a10.7,10.7,0,0,0,1.91.17c7.31,0,14.62,0,21.93,0,3.84,0,6.38-2.33,6.39-5.7s-2.58-5.72-6.36-5.76C62.89,14.52,59.27,14.55,55.66,14.55Z"/><path class="cls-2" d="M21.55,0C31.08,0,39.07,8,39,17.32A17.68,17.68,0,0,1,21.53,34.68,17.24,17.24,0,0,1,4.18,17.17,17.09,17.09,0,0,1,21.55,0Z"/><path class="cls-3" d="M21.27,59.38a50.46,50.46,0,0,1-15-1.46c-2.48-.66-5.48-1.28-6.11-4s1.57-5.12,3.56-7C7,43.84,11.05,42.45,15.4,41.77c6.09-1,12.14-.92,18,1.19a14.42,14.42,0,0,1,7.89,6c2.39,3.92,1.66,6.29-2.56,8.15-3.58,1.57-7.41,2-11.25,2.25C25.51,59.5,23.49,59.38,21.27,59.38Z"/><path class="cls-4" d="M55.72,33.37c3.61,0,7.22,0,10.83,0,3.79,0,6.33,2.41,6.3,5.79s-2.57,5.64-6.2,5.66q-11.2.07-22.39,0c-3.62,0-6.16-2.44-6.18-5.68s2.52-5.73,6.32-5.77S52,33.37,55.72,33.37Z"/><path class="cls-5" d="M55.66,14.55c3.61,0,7.23,0,10.84,0,3.78,0,6.37,2.41,6.36,5.76S70.3,26,66.47,26c-7.31,0-14.62,0-21.93,0a10.7,10.7,0,0,1-1.91-.17c-1.31-.24-2-.76-1.29-2.29a12.88,12.88,0,0,0,1.12-6.81c-.15-1.67.38-2.27,2.1-2.22C48.27,14.63,52,14.55,55.66,14.55Z"/></g></g></svg>