<svg xmlns="http://www.w3.org/2000/svg" viewBox="0 0 52.15 72"><defs><style>.cls-1{fill:#7da5c6;}</style></defs><title>location_2</title><g id="Слой_2" data-name="Слой 2"><g id="Слой_1-2" data-name="Слой 1"><path class="cls-1" d="M26.08,0A26.1,26.1,0,0,0,0,26.08c0,17.84,23.33,44,24.33,45.15a2.35,2.35,0,0,0,3.49,0c1-1.11,24.33-27.3,24.33-45.15A26.11,26.11,0,0,0,26.08,0Zm0,39.19A13.12,13.12,0,1,1,39.19,26.08,13.13,13.13,0,0,1,26.08,39.19Z"/><path class="cls-1" d="M26.08,0A26.1,26.1,0,0,0,0,26.08c0,17.84,23.33,44,24.33,45.15a2.35,2.35,0,0,0,3.49,0c1-1.11,24.33-27.3,24.33-45.15A26.11,26.11,0,0,0,26.08,0Zm0,39.19A13.12,13.12,0,1,1,39.19,26.08,13.13,13.13,0,0,1,26.08,39.19Z"/></g></g></svg>