<svg xmlns="http://www.w3.org/2000/svg" viewBox="0 0 60 60"><defs><style>.cls-1{fill:#7da4c5;}</style></defs><title>more</title><g id="Слой_2" data-name="Слой 2"><g id="Слой_1-2" data-name="Слой 1"><path class="cls-1" d="M0,29.83c0-7.68,0-15.36,0-23C.05,2.16,2.11,0,6.65,0q23-.06,46.08,0C57.18,0,60,2.85,60,7.33Q60,30,60,52.68C60,57.16,57.19,60,52.73,60q-23,.06-46.08,0C2,60,.05,57.94,0,53.23,0,45.43,0,37.63,0,29.83Zm29.35-8.7c4.38,0,8.77-.07,13.15,0,2.29.05,2.19-1.38,2.12-2.88s.48-3.07-1.92-3.06c-8.64,0-17.29,0-25.93,0-2.59,0-2.06,1.74-2.16,3.26-.11,1.7.22,2.77,2.32,2.71C21.08,21,25.22,21.13,29.36,21.13ZM30,33c4,0,8.05-.11,12.07,0,2.21.08,2.67-.87,2.61-2.82s.06-3.26-2.6-3.21c-8.29.15-16.58.12-24.87,0-2.19,0-2.68.86-2.62,2.82s0,3.32,2.61,3.2C21.46,32.82,25.73,33,30,33ZM17.25,38.83c-2.14,0-2.72.78-2.66,2.78s0,3.32,2.62,3.22c4.13-.16,8.28,0,12.41,0s8.28-.13,12.41,0c2.57.11,2.61-1.27,2.64-3.17s-.38-2.87-2.6-2.84"/></g></g></svg>