<svg xmlns="http://www.w3.org/2000/svg" viewBox="0 0 96.75 99.05"><defs><style>.cls-1{fill:#7fa6c6;}</style></defs><title>settings</title><g id="Слой_2" data-name="Слой 2"><g id="Слой_1-2" data-name="Слой 1"><path class="cls-1" d="M0,63.84c1.24-2.56,3.6-3.95,5.85-5.16,4.15-2.23,5.31-5.33,5.54-10,.25-5.36-3.53-6.79-6.47-9.13-5.43-4.32-5.51-4.2-2.07-10.06,2.27-3.88,4.6-7.73,6.71-11.7C11,15,12.87,14.22,15.68,15.5c1.36.62,3,.85,4.15,1.69,5.3,3.8,9.35,0,13.6-2.16,1.93-1,1.38-3.2,1.61-5,.3-2.31.73-4.6.94-6.92S37.44,0,39.62,0c5.83,0,11.67,0,17.5,0C59.54,0,60.85.89,61,3.44c.1,1.65.57,3.28.76,4.93,1.06,9.19,6.76,12.53,15.31,9,1.38-.58,2.79-1.11,4.14-1.75,2.53-1.2,4.35-.76,5.79,1.85,2.9,5.24,6,10.39,9,15.54,1.17,2,.93,3.37-1.06,4.59-1.27.78-2.29,2.08-3.63,2.62-6.22,2.48-6,7.7-5.57,12.9.34,3.7,4,4.86,6.44,6.46,4.46,2.88,5.4,5.53,2,10a80.45,80.45,0,0,0-6.79,11.64c-1.57,3-3.61,3.61-6.54,2.14-1.49-.74-3.06-1.3-4.59-2-7.54-3.24-13.79.38-14.48,8.38-.06.66-.09,1.33-.19,2C60.55,99,60.55,99,53,99c-3.83,0-7.68-.16-11.5,0-3.55.19-5.89-.57-5.74-4.76a28.52,28.52,0,0,0-.66-3.93c-1-8.78-6.83-12.19-15.08-8.74-1.69.71-3.36,1.47-5.06,2.13-2,.75-3.57.39-4.69-1.55C7.13,76.71,3.92,71.25.76,65.77A14.15,14.15,0,0,1,0,63.84Zm48.6-34A19.26,19.26,0,0,0,28.82,49.23C28.72,60.41,37,69,48.07,69.15c11.38.15,20-8.34,20.05-19.64A19.28,19.28,0,0,0,48.6,29.84Z"/></g></g></svg>