<svg xmlns="http://www.w3.org/2000/svg" viewBox="0 0 68.96 74"><defs><style>.cls-1{fill:#7da5c6;}</style></defs><title>website_1</title><g id="Слой_2" data-name="Слой 2"><g id="Слой_1-2" data-name="Слой 1"><path class="cls-1" d="M12.51,14.45a36.6,36.6,0,0,0,3.15,2.17c-.55,1.33-1,2.74-1.48,4.19h4.46c.25-.74.5-1.5.79-2.21a35.93,35.93,0,0,0,6.43,2.21H43.12a35.1,35.1,0,0,0,6.5-2.25c.29.72.53,1.49.79,2.25h4.37a42.93,42.93,0,0,0-1.48-4.19,34.52,34.52,0,0,0,3.15-2.17,31.71,31.71,0,0,1,5,6.36h6.22a36.93,36.93,0,0,0-66.45,0H7.47A31.67,31.67,0,0,1,12.51,14.45Zm40.72-2.72c-.57.41-1.14.81-1.73,1.18A31.55,31.55,0,0,0,49.09,9.1,30.59,30.59,0,0,1,53.23,11.73Zm-5.35,3.12a32.25,32.25,0,0,1-5.77,2,51,51,0,0,0-2.49-10.8C42.82,7.7,45.65,10.76,47.88,14.85ZM34.06,5.5l.42,0,.42,0c1,1.66,2.23,5.8,3.13,12.09a30.32,30.32,0,0,1-3.55.23,30.16,30.16,0,0,1-3.55-.23C31.83,11.3,33.05,7.16,34.06,5.5Zm-4.74.65a51.39,51.39,0,0,0-2.46,10.74,32.18,32.18,0,0,1-5.67-2C23.41,10.85,26.2,7.78,29.32,6.15Zm-9.45,3a33.26,33.26,0,0,0-2.41,3.81c-.59-.37-1.16-.77-1.73-1.17A30.52,30.52,0,0,1,19.87,9.1Z"/><path class="cls-1" d="M56.46,59.55a37.52,37.52,0,0,0-3.15-2.18c.55-1.33,1-2.73,1.48-4.19H50.42c-.25.76-.5,1.53-.79,2.25a35.64,35.64,0,0,0-6.51-2.25H25.85a36.09,36.09,0,0,0-6.42,2.21c-.29-.71-.53-1.47-.79-2.21H14.18a44,44,0,0,0,1.48,4.19,36.73,36.73,0,0,0-3.15,2.17,31.55,31.55,0,0,1-5-6.36H1.27a36.92,36.92,0,0,0,66.45,0H61.5A31.82,31.82,0,0,1,56.46,59.55ZM15.73,62.27c.57-.41,1.14-.81,1.73-1.17a33.23,33.23,0,0,0,2.41,3.8A31,31,0,0,1,15.73,62.27Zm5.45-3.17a32.73,32.73,0,0,1,5.67-2,51.53,51.53,0,0,0,2.46,10.74C26.2,66.22,23.41,63.15,21.18,59.11ZM34.9,68.5l-.42,0-.42,0c-1-1.66-2.23-5.8-3.13-12.09a27.65,27.65,0,0,1,7.1,0C37.13,62.7,35.92,66.84,34.9,68.5Zm4.72-.58a51,51,0,0,0,2.49-10.8,32.44,32.44,0,0,1,5.77,2C45.65,63.24,42.82,66.3,39.62,67.92Zm9.47-3a32.49,32.49,0,0,0,2.41-3.81c.59.37,1.17.77,1.73,1.18A30.58,30.58,0,0,1,49.09,64.9Z"/><path class="cls-1" d="M8.57,44.35,10,39.18a34.21,34.21,0,0,0,1-4.57h.06c.3,1.8.57,3.13.93,4.57l1.38,5.17h4.3l4.51-14.7H17.71l-1.26,5.83c-.33,1.69-.63,3.34-.84,5h-.06c-.3-1.69-.69-3.33-1.08-5L13,29.66H9.38l-1.56,6c-.36,1.44-.78,3.13-1.08,4.81H6.68c-.24-1.69-.54-3.31-.84-4.84l-1.17-6H0l4.27,14.7h4.3Z"/><path class="cls-1" d="M39.83,35.48c-.34,1.69-.63,3.34-.84,5h-.06c-.3-1.69-.69-3.33-1.08-5l-1.48-5.86H32.76l-1.56,6c-.36,1.44-.78,3.13-1.08,4.81h-.06c-.24-1.69-.54-3.31-.84-4.84l-1.17-6H23.38l4.27,14.7H32l1.47-5.17a34.49,34.49,0,0,0,1-4.57h.06c.3,1.8.57,3.13.93,4.57l1.38,5.17h4.3l4.5-14.7H41.08Z"/><path class="cls-1" d="M63.22,35.48c-.33,1.69-.63,3.34-.84,5h-.06c-.3-1.69-.69-3.33-1.08-5l-1.47-5.86H56.16l-1.57,6c-.36,1.44-.78,3.13-1.08,4.81h-.06c-.24-1.69-.54-3.31-.84-4.84l-1.17-6H46.77L51,44.35h4.29l1.48-5.17a34.86,34.86,0,0,0,1-4.57h.06c.3,1.8.57,3.13.93,4.57l1.38,5.17h4.3L69,29.65H64.47Z"/></g></g></svg>