<svg xmlns="http://www.w3.org/2000/svg" viewBox="0 0 73.36 50.44"><defs><style>.cls-1{fill:#e02f2f;}</style></defs><title>youtube_1</title><g id="Слой_2" data-name="Слой 2"><g id="Слой_1-2" data-name="Слой 1"><path class="cls-1" d="M70.25,4.86C68.26,1.32,66.1.67,61.7.42S46.26,0,36.69,0s-20.64.12-25,.42-6.55.9-8.56,4.44S0,14.48,0,25.2H0C0,35.92,1.05,42.05,3.1,45.55S7.27,49.73,11.66,50s15.44.41,25,.41,20.62-.15,25-.4,6.56-.94,8.55-4.48,3.11-9.63,3.11-20.31v0h0C73.36,14.48,72.32,8.4,70.25,4.86ZM27.51,39V11.46L50.44,25.22Z"/></g></g></svg>