<svg xmlns="http://www.w3.org/2000/svg" viewBox="0 0 24.1 24.697"><g transform="translate(0)"><path d="M12.05,0A12.216,12.216,0,0,0,0,12.349,12.216,12.216,0,0,0,12.05,24.7,12.216,12.216,0,0,0,24.1,12.349,12.216,12.216,0,0,0,12.05,0Zm0,22.673A10.213,10.213,0,0,1,1.975,12.349,10.213,10.213,0,0,1,12.05,2.025,10.213,10.213,0,0,1,22.125,12.349,10.213,10.213,0,0,1,12.05,22.674Z" transform="translate(0 -0.001)"/><path d="M94.522,93.251l3.408-3.492a1.03,1.03,0,0,0,0-1.431.971.971,0,0,0-1.4,0L93.125,91.82l-3.408-3.492a.971.971,0,0,0-1.4,0,1.03,1.03,0,0,0,0,1.431l3.408,3.492-3.408,3.492a1.03,1.03,0,0,0,0,1.432.971.971,0,0,0,1.4,0l3.408-3.493,3.408,3.493a.971.971,0,0,0,1.4,0,1.03,1.03,0,0,0,0-1.432Z" transform="translate(-81.075 -80.903)"/></g></svg>